<svg xmlns="http://www.w3.org/2000/svg" viewBox="0 0 1200 760">
  <defs>
    <linearGradient id="sky" x1="0" y1="0" x2="0" y2="1">
      <stop offset="0" stop-color="#dff5ef"/>
      <stop offset="1" stop-color="#8dbb66"/>
    </linearGradient>
    <linearGradient id="cliff" x1="0" y1="0" x2="1" y2="1">
      <stop offset="0" stop-color="#1f513f"/>
      <stop offset="1" stop-color="#34523f"/>
    </linearGradient>
  </defs>
  <rect width="1200" height="760" fill="url(#sky)"/>
  <path d="M0 385 C140 255 245 350 365 225 C500 84 690 238 785 176 C940 75 1035 232 1200 165 L1200 760 L0 760 Z" fill="#2f6f55"/>
  <path d="M0 470 C150 375 310 455 450 330 C590 205 725 405 870 280 C1010 160 1110 290 1200 230 L1200 760 L0 760 Z" fill="url(#cliff)"/>
  <path d="M160 585 C305 520 405 630 555 560 C725 480 880 605 1040 525" fill="none" stroke="#eef9f2" stroke-width="48" opacity=".2"/>
  <path d="M462 425 C468 515 432 590 450 705" stroke="#d7f7ee" stroke-width="20" stroke-linecap="round" opacity=".75"/>
  <path d="M708 362 C694 455 735 535 705 665" stroke="#d7f7ee" stroke-width="16" stroke-linecap="round" opacity=".6"/>
  <path d="M230 620 L980 470" stroke="#e8d9b8" stroke-width="14" stroke-linecap="round"/>
  <circle cx="1020" cy="130" r="62" fill="#f5d18c" opacity=".7"/>
</svg>
