<svg xmlns="http://www.w3.org/2000/svg" viewBox="0 0 1200 760">
  <defs>
    <linearGradient id="sky" x1="0" y1="0" x2="1" y2="1">
      <stop offset="0" stop-color="#f5dfbd"/>
      <stop offset="1" stop-color="#d35236"/>
    </linearGradient>
  </defs>
  <rect width="1200" height="760" fill="url(#sky)"/>
  <circle cx="980" cy="140" r="80" fill="#f8dfa2" opacity=".85"/>
  <path d="M0 560 C260 520 420 600 650 545 C840 500 1010 570 1200 525 L1200 760 L0 760 Z" fill="#0e6b72"/>
  <rect x="120" y="430" width="960" height="120" fill="#7b4634"/>
  <rect x="160" y="385" width="120" height="165" fill="#693e2e"/>
  <rect x="920" y="385" width="120" height="165" fill="#693e2e"/>
  <rect x="480" y="350" width="240" height="200" fill="#6f3d2c"/>
  <path d="M455 350 L600 245 L745 350 Z" fill="#2b2d2f"/>
  <path d="M130 410 L285 325 L440 410 Z" fill="#2b2d2f"/>
  <path d="M760 410 L920 325 L1080 410 Z" fill="#2b2d2f"/>
  <rect x="550" y="450" width="100" height="100" rx="50" fill="#261d19"/>
  <path d="M80 555 L1120 555" stroke="#f4c27c" stroke-width="10"/>
  <path d="M200 620 C410 585 520 640 725 600 C870 570 1015 610 1130 585" fill="none" stroke="#e8fff5" stroke-width="8" opacity=".45"/>
</svg>
