<svg xmlns="http://www.w3.org/2000/svg" viewBox="0 0 1200 760">
  <defs>
    <linearGradient id="sky" x1="0" y1="0" x2="1" y2="1">
      <stop offset="0" stop-color="#dcecf0"/>
      <stop offset="1" stop-color="#d6af62"/>
    </linearGradient>
    <linearGradient id="river" x1="0" y1="0" x2="1" y2="0">
      <stop offset="0" stop-color="#31425b"/>
      <stop offset="1" stop-color="#6f7757"/>
    </linearGradient>
  </defs>
  <rect width="1200" height="760" fill="url(#sky)"/>
  <path d="M0 360 C190 265 310 330 470 250 C620 175 755 285 900 215 C1050 145 1135 215 1200 185 L1200 760 L0 760 Z" fill="#6f7757"/>
  <path d="M0 570 C230 510 430 615 660 550 C860 495 1015 565 1200 520 L1200 760 L0 760 Z" fill="url(#river)"/>
  <rect x="180" y="390" width="840" height="110" fill="#5a3c31"/>
  <rect x="230" y="330" width="120" height="170" fill="#4b332b"/>
  <rect x="850" y="330" width="120" height="170" fill="#4b332b"/>
  <path d="M205 330 L290 255 L375 330 Z" fill="#1f2930"/>
  <path d="M825 330 L910 255 L995 330 Z" fill="#1f2930"/>
  <path d="M90 505 L1110 505" stroke="#e9d79c" stroke-width="12" stroke-linecap="round"/>
  <path d="M210 620 C420 585 560 640 760 595 C900 565 1040 610 1130 585" fill="none" stroke="#ecfff7" stroke-width="8" opacity=".45"/>
</svg>
