<svg xmlns="http://www.w3.org/2000/svg" viewBox="0 0 1200 760">
  <defs>
    <linearGradient id="sky" x1="0" y1="0" x2="1" y2="1">
      <stop offset="0" stop-color="#d8f1ea"/>
      <stop offset="1" stop-color="#7db8b5"/>
    </linearGradient>
    <linearGradient id="water" x1="0" y1="0" x2="1" y2="0">
      <stop offset="0" stop-color="#0e6b72"/>
      <stop offset="1" stop-color="#2fb98e"/>
    </linearGradient>
  </defs>
  <rect width="1200" height="760" fill="url(#sky)"/>
  <circle cx="990" cy="128" r="86" fill="#f2c477" opacity=".85"/>
  <path d="M0 370 C170 260 270 310 430 220 C570 140 705 240 820 190 C940 135 1055 210 1200 150 L1200 760 L0 760 Z" fill="#234b45"/>
  <path d="M0 470 C170 370 300 430 465 330 C630 230 760 360 910 280 C1050 205 1135 295 1200 250 L1200 760 L0 760 Z" fill="#3f7768"/>
  <path d="M0 560 C220 520 325 590 520 535 C735 475 925 555 1200 500 L1200 760 L0 760 Z" fill="url(#water)"/>
  <path d="M120 590 C320 560 510 604 704 568 C860 538 1030 572 1120 548" fill="none" stroke="#dff7ef" stroke-width="8" opacity=".55"/>
  <rect x="746" y="408" width="230" height="70" rx="8" fill="#eef6f2"/>
  <rect x="782" y="352" width="42" height="126" fill="#eef6f2"/>
  <rect x="858" y="332" width="42" height="146" fill="#eef6f2"/>
  <rect x="934" y="374" width="42" height="104" fill="#eef6f2"/>
  <path d="M710 488 L1010 488" stroke="#102a31" stroke-width="12" stroke-linecap="round"/>
</svg>
